<svg width="1413" height="603" viewBox="0 0 1413 603" fill="none" xmlns="http://www.w3.org/2000/svg">
<path d="M419.094 284.273C665.378 240.96 470.341 10.9816 903.515 2.64441C1012.35 0.549621 1028.47 -1.83806 1372.42 2.16137C1394.68 2.4202 1412.58 20.8147 1412.07 43.0697L1408.52 197.304C1404.36 269.102 1407.56 390.356 1411.92 558.293C1412.51 581.048 1393.89 599.725 1371.13 599.463C1148.94 596.908 1153.83 608.058 775.647 600.066C452.093 593.229 147.697 597.439 42.654 599.309C21.0343 599.694 3.04294 582.898 1.96606 561.302C1.2684 547.311 0.613509 533.685 0 520.41C0 389.32 12.8777 404.256 3.95936 319.123C-1.73261 264.789 110.618 334.556 208.634 310.162C375.808 253.904 357.647 295.08 419.094 284.273Z" fill="url(#paint0_linear_686_807)"/>
<defs>
<linearGradient id="paint0_linear_686_807" x1="520.579" y1="100.5" x2="649.691" y2="639.822" gradientUnits="userSpaceOnUse">
<stop stop-color="#FD9FFF"/>
<stop offset="0.489583" stop-color="#FF91CC"/>
<stop offset="1" stop-color="#FF8ED2"/>
</linearGradient>
</defs>
</svg>
