<svg width="649" height="296" viewBox="0 0 649 296" fill="none" xmlns="http://www.w3.org/2000/svg">
<path d="M606.815 1.99991C643.093 1.99992 653.816 11.8825 645.815 32.5C641.01 44.8825 605.637 74 595.75 88C523.233 190.687 529.02 211.162 494.315 234.5C459.611 257.838 412.315 272.5 343.815 262.5C291.013 254.792 225.649 292.926 172.815 295C119.982 297.075 79.364 288.818 33.3151 280C-13.685 271 3.70082 181.587 3.70076 82.2934C3.70071 -17 15.8149 4.98179 141.315 1.99991C238.349 -0.305637 350.315 1.99991 350.315 1.99991L606.815 1.99991Z" fill="url(#paint0_linear_686_811)"/>
<defs>
<linearGradient id="paint0_linear_686_811" x1="239.205" y1="50.0332" x2="305.831" y2="311.402" gradientUnits="userSpaceOnUse">
<stop stop-color="#FD9FFF"/>
<stop offset="0.489583" stop-color="#FF91CC"/>
<stop offset="1" stop-color="#FF8ED2"/>
</linearGradient>
</defs>
</svg>
