<svg width="925" height="782" viewBox="0 0 925 782" fill="none" xmlns="http://www.w3.org/2000/svg">
<path fill-rule="evenodd" clip-rule="evenodd" d="M16.0002 339.5C-3.49959 400.5 -8.85105 408 28.0002 624.5C45.6337 728.096 122.209 616.552 190.906 733.853C260.017 851.861 270.466 717.12 376.5 699.5C491.648 680.365 509.835 683.756 647 562.5C715.878 501.611 882.155 532.395 892 400C901.933 266.43 940.001 435.709 926.105 313.357C915.504 220.019 951.776 137.592 876.785 77.9239C813.966 27.9403 877.692 67.4743 784 69.5C693.113 71.4652 659 0.500069 509.553 10.1532C401.661 28.4986 216.504 -23.6656 113.316 16.4948C61.2582 36.7553 66.1487 38.5001 44.5 69.5001C25.1487 105 49.8514 108.5 44.5002 190C42.3252 223.124 32.8272 286.861 16.0002 339.5Z" fill="url(#paint0_linear_906_67)"/>
<path fill-rule="evenodd" clip-rule="evenodd" d="M16.0002 339.5C-3.49959 400.5 -8.85105 408 28.0002 624.5C45.6337 728.096 122.209 616.552 190.906 733.853C260.017 851.861 270.466 717.12 376.5 699.5C491.648 680.365 509.835 683.756 647 562.5C715.878 501.611 882.155 532.395 892 400C901.933 266.43 940.001 435.709 926.105 313.357C915.504 220.019 951.776 137.592 876.785 77.9239C813.966 27.9403 877.692 67.4743 784 69.5C693.113 71.4652 659 0.500069 509.553 10.1532C401.661 28.4986 216.504 -23.6656 113.316 16.4948C61.2582 36.7553 66.1487 38.5001 44.5 69.5001C25.1487 105 49.8514 108.5 44.5002 190C42.3252 223.124 32.8272 286.861 16.0002 339.5Z" fill="url(#paint1_linear_906_67)"/>
<defs>
<linearGradient id="paint0_linear_906_67" x1="525.825" y1="-6.58819" x2="374.35" y2="807" gradientUnits="userSpaceOnUse">
<stop stop-color="#F6D365"/>
<stop offset="1" stop-color="#FDA085"/>
</linearGradient>
<linearGradient id="paint1_linear_906_67" x1="976.328" y1="101.699" x2="1.14938" y2="831.475" gradientUnits="userSpaceOnUse">
<stop stop-color="#7352D6"/>
<stop offset="1" stop-color="#A278EF"/>
</linearGradient>
</defs>
</svg>
