<svg width="421" height="278" viewBox="0 0 421 278" fill="none" xmlns="http://www.w3.org/2000/svg">
<path d="M390.042 47.1159C365.397 26.825 329.77 10.3805 280.375 1.7637C189.105 -4.66259 218.323 24.3839 106.447 22.4178C-5.42824 20.4516 -0.33244 48.6612 0.689613 86.6979C1.81551 128.599 18.5244 140.555 37.7805 175.551C57.0365 210.548 42.8396 238.275 74.3611 263.353C105.883 288.431 147.085 279.156 171.64 242.272C196.194 205.388 262.395 193.666 328.696 167.735C394.996 141.804 384.515 160.999 408.798 131.936C433.081 102.872 414.687 67.4069 390.042 47.1159Z" fill="url(#paint0_linear_741_310)"/>
<defs>
<linearGradient id="paint0_linear_741_310" x1="154.078" y1="48.9705" x2="243.267" y2="274.238" gradientUnits="userSpaceOnUse">
<stop stop-color="#FD9FFF"/>
<stop offset="0.489583" stop-color="#FF91CC"/>
<stop offset="1" stop-color="#FF8ED2"/>
</linearGradient>
</defs>
</svg>
