<svg width="830" height="842" viewBox="0 0 830 842" fill="none" xmlns="http://www.w3.org/2000/svg">
<path fill-rule="evenodd" clip-rule="evenodd" d="M573.548 125.993C654.524 176.32 807.823 141.493 827.436 250.097C841.839 329.846 776.01 418.178 785.861 522.273C795.771 626.996 859.808 802.79 785.861 837.034C705.558 874.221 610.079 681.377 470.239 663.017C400.018 653.798 290.755 704.385 221.907 683.124C151.921 661.512 98.8892 579.784 78.5597 483.762C68.4055 435.8 26.1601 443.791 0.782925 385.224C0.689262 310.979 60.7382 247.233 120 208.357C177.488 170.645 160.602 166.341 223.611 137.457C299.041 102.879 284.664 21.9246 366.953 3.24478C455.474 -16.8497 505.762 83.863 573.548 125.993Z" fill="url(#paint0_linear_906_81)"/>
<defs>
<linearGradient id="paint0_linear_906_81" x1="-84.3199" y1="404.196" x2="807.455" y2="1188.93" gradientUnits="userSpaceOnUse">
<stop stop-color="#7C5CDD"/>
<stop offset="0.911739" stop-color="#A5C2EF"/>
</linearGradient>
</defs>
</svg>
